# This file uses centimeters as units for non-parametric coordinates.

mtllib Añadidos.mtl
g default
v 0.878372 0.225803 -0.861952
v 0.534457 0.225803 -1.250149
v 0.049534 0.225803 -1.434056
v -0.465308 0.225803 -1.371543
v -0.892134 0.225803 -1.076931
v -1.133148 0.225803 -0.617710
v -1.133148 0.225803 -0.099086
v -0.892134 0.225803 0.360133
v -0.465308 0.225803 0.654745
v 0.049530 0.225803 0.717260
v 0.534457 0.225803 0.533353
v 0.878372 0.225803 0.145158
v 1.002481 0.225803 -0.358400
v 0.878372 0.263584 -0.861952
v 0.534457 0.263584 -1.250149
v 0.049534 0.263584 -1.434056
v -0.465308 0.263584 -1.371543
v -0.892134 0.263584 -1.076931
v -1.133148 0.263584 -0.617710
v -1.133148 0.263584 -0.099086
v -0.892134 0.263584 0.360133
v -0.465308 0.263584 0.654745
v 0.049530 0.263584 0.717260
v 0.534457 0.263584 0.533353
v 0.878372 0.263584 0.145158
v 1.002481 0.263584 -0.358400
v 0.849846 0.226374 -0.846732
v 0.516330 0.226374 -1.223197
v 0.046063 0.226374 -1.401545
v -0.453221 0.226374 -1.340922
v -0.867140 0.226374 -1.055213
v -1.100872 0.226374 -0.609872
v -1.100872 0.226374 -0.106924
v -0.867140 0.226374 0.338415
v -0.453221 0.226374 0.624125
v 0.046059 0.226374 0.684749
v 0.516330 0.226374 0.506401
v 0.849846 0.226374 0.129936
v 0.970208 0.226374 -0.358400
v 0.849846 0.263013 -0.846732
v 0.516330 0.263013 -1.223197
v 0.046063 0.263013 -1.401545
v -0.453221 0.263013 -1.340922
v -0.867140 0.263013 -1.055213
v -1.100872 0.263013 -0.609872
v -1.100872 0.263013 -0.106924
v -0.867140 0.263013 0.338415
v -0.453221 0.263013 0.624125
v 0.046059 0.263013 0.684749
v 0.516330 0.263013 0.506401
v 0.849846 0.263013 0.129936
v 0.970208 0.263013 -0.358400
vt 0.199800 0.143831
vt 0.199800 0.123715
vt 0.201271 0.123715
vt 0.201271 0.143831
vt 0.199799 0.103606
vt 0.201271 0.103606
vt 0.199799 0.083496
vt 0.201263 0.083496
vt 0.199799 0.063386
vt 0.201263 0.063386
vt 0.199799 0.043274
vt 0.201263 0.043274
vt 0.199799 0.023162
vt 0.201263 0.023162
vt 0.199799 0.002867
vt 0.201263 0.264682
vt 0.199799 0.244370
vt 0.201263 0.244370
vt 0.199799 0.224263
vt 0.201263 0.224263
vt 0.199799 0.204153
vt 0.201263 0.204153
vt 0.199799 0.184044
vt 0.201263 0.184044
vt 0.199799 0.163935
vt 0.201271 0.163935
vt 0.204000 0.143831
vt 0.204000 0.123714
vt 0.204002 0.103606
vt 0.203995 0.083496
vt 0.203995 0.063386
vt 0.203995 0.043274
vt 0.204010 0.023162
vt 0.204010 0.002867
vt 0.204010 0.244370
vt 0.203995 0.224263
vt 0.203995 0.204154
vt 0.203995 0.184044
vt 0.204002 0.163935
vt 0.202534 0.123715
vt 0.202534 0.143831
vt 0.202530 0.103606
vt 0.202530 0.083496
vt 0.202530 0.063386
vt 0.202530 0.043274
vt 0.202545 0.023162
vt 0.202545 0.264682
vt 0.202545 0.244370
vt 0.202530 0.224263
vt 0.202530 0.204153
vt 0.202530 0.184044
vt 0.202530 0.163935
vt 0.198547 0.002867
vt 0.198547 0.264682
vt 0.204010 0.264682
vt 0.202545 0.002867
vt 0.201263 0.002867
vt 0.198540 0.163935
vt 0.198540 0.143831
vt 0.198532 0.184044
vt 0.198532 0.204154
vt 0.198532 0.224263
vt 0.198547 0.244370
vt 0.199799 0.264682
vt 0.198547 0.023162
vt 0.198532 0.043274
vt 0.198532 0.063386
vt 0.198532 0.083496
vt 0.198540 0.103606
vt 0.198540 0.123714
vn 0.717808 -0.585522 -0.376717
vn 0.459794 -0.587297 -0.666087
vn 0.459800 0.587283 -0.666095
vn 0.717817 0.585507 -0.376722
vn 0.097367 -0.589801 -0.801657
vn 0.097367 0.589798 -0.801660
vn -0.285644 -0.592462 -0.753258
vn -0.285644 0.592458 -0.753260
vn -0.601776 -0.594654 -0.533153
vn -0.601778 0.594650 -0.533155
vn -0.779748 -0.595864 -0.192196
vn -0.779750 0.595861 -0.192196
vn -0.779763 -0.595843 0.192200
vn -0.779765 0.595840 0.192200
vn -0.601787 -0.594633 0.533165
vn -0.601789 0.594630 0.533166
vn -0.285647 -0.592458 0.753259
vn -0.285647 0.592458 0.753259
vn 0.097365 -0.589795 0.801662
vn 0.097365 0.589789 0.801666
vn 0.459787 -0.587307 0.666082
vn 0.459795 0.587287 0.666095
vn 0.717817 -0.585509 0.376721
vn 0.717826 0.585494 0.376726
vn 0.811134 -0.584860 0.000000
vn 0.811136 0.584857 -0.000000
vn -0.621293 -0.712514 0.326065
vn -0.397677 -0.714120 0.576096
vn -0.084125 -0.716384 0.692616
vn 0.246507 -0.718797 0.650050
vn 0.518826 -0.720787 0.459659
vn 0.671905 -0.721883 0.165616
vn 0.671924 -0.721864 -0.165621
vn 0.518840 -0.720768 -0.459673
vn 0.246511 -0.718793 -0.650053
vn -0.084123 -0.716379 -0.692621
vn -0.397670 -0.714129 -0.576089
vn -0.621304 -0.712503 -0.326069
vn -0.702269 -0.711911 0.000000
vn -0.397680 0.714113 0.576101
vn -0.621299 0.712508 0.326067
vn -0.084124 0.716388 0.692612
vn 0.246506 0.718801 0.650046
vn 0.518823 0.720790 0.459656
vn 0.671901 0.721887 0.165615
vn 0.671920 0.721868 -0.165620
vn 0.518837 0.720772 -0.459670
vn 0.246509 0.718799 -0.650047
vn -0.084123 0.716381 -0.692620
vn -0.397676 0.714118 -0.576098
vn -0.621309 0.712497 -0.326072
vn -0.702265 0.711916 0.000000
s 1
g pCylinder24 mesa ASSETS Consultorio1 group16
usemtl lambert3SG
f 1/1/1 2/2/2 15/3/3 14/4/4
f 2/2/2 3/5/5 16/6/6 15/3/3
f 3/5/5 4/7/7 17/8/8 16/6/6
f 4/7/7 5/9/9 18/10/10 17/8/8
f 5/9/9 6/11/11 19/12/12 18/10/10
f 6/11/11 7/13/13 20/14/14 19/12/12
f 7/13/13 8/15/15 21/57/16 20/14/14
f 8/64/15 9/17/17 22/18/18 21/16/16
f 9/17/17 10/19/19 23/20/20 22/18/18
f 10/19/19 11/21/21 24/22/22 23/20/20
f 11/21/21 12/23/23 25/24/24 24/22/22
f 12/23/23 13/25/25 26/26/26 25/24/24
f 13/25/25 1/1/1 14/4/4 26/26/26
f 2/2/2 1/1/1 27/59/27 28/70/28
f 3/5/5 2/2/2 28/70/28 29/69/29
f 4/7/7 3/5/5 29/69/29 30/68/30
f 5/9/9 4/7/7 30/68/30 31/67/31
f 6/11/11 5/9/9 31/67/31 32/66/32
f 7/13/13 6/11/11 32/66/32 33/65/33
f 8/15/15 7/13/13 33/65/33 34/53/34
f 9/17/17 8/64/15 34/54/34 35/63/35
f 10/19/19 9/17/17 35/63/35 36/62/36
f 11/21/21 10/19/19 36/62/36 37/61/37
f 12/23/23 11/21/21 37/61/37 38/60/38
f 13/25/25 12/23/23 38/60/38 39/58/39
f 1/1/1 13/25/25 39/58/39 27/59/27
f 14/4/4 15/3/3 41/40/40 40/41/41
f 15/3/3 16/6/6 42/42/42 41/40/40
f 16/6/6 17/8/8 43/43/43 42/42/42
f 17/8/8 18/10/10 44/44/44 43/43/43
f 18/10/10 19/12/12 45/45/45 44/44/44
f 19/12/12 20/14/14 46/46/46 45/45/45
f 20/14/14 21/57/16 47/56/47 46/46/46
f 21/16/16 22/18/18 48/48/48 47/47/47
f 22/18/18 23/20/20 49/49/49 48/48/48
f 23/20/20 24/22/22 50/50/50 49/49/49
f 24/22/22 25/24/24 51/51/51 50/50/50
f 25/24/24 26/26/26 52/52/52 51/51/51
f 26/26/26 14/4/4 40/41/41 52/52/52
f 28/28/28 27/27/27 40/41/41 41/40/40
f 27/27/27 39/39/39 52/52/52 40/41/41
f 39/39/39 38/38/38 51/51/51 52/52/52
f 38/38/38 37/37/37 50/50/50 51/51/51
f 37/37/37 36/36/36 49/49/49 50/50/50
f 36/36/36 35/35/35 48/48/48 49/49/49
f 35/35/35 34/55/34 47/47/47 48/48/48
f 34/34/34 33/33/33 46/46/46 47/56/47
f 33/33/33 32/32/32 45/45/45 46/46/46
f 32/32/32 31/31/31 44/44/44 45/45/45
f 31/31/31 30/30/30 43/43/43 44/44/44
f 30/30/30 29/29/29 42/42/42 43/43/43
f 29/29/29 28/28/28 41/40/40 42/42/42
g default
v 0.878372 0.845754 -0.861950
v 0.534457 0.845754 -1.250148
v 0.049538 0.845754 -1.434054
v -0.465308 0.845754 -1.371541
v -0.892130 0.845754 -1.076929
v -1.133141 0.845754 -0.617710
v -1.133141 0.845754 -0.099086
v -0.892130 0.845754 0.360135
v -0.465308 0.845754 0.654749
v 0.049534 0.845754 0.717260
v 0.534457 0.845754 0.533353
v 0.878372 0.845754 0.145158
v 1.002485 0.845754 -0.358400
v 0.878372 0.883535 -0.861950
v 0.534457 0.883535 -1.250148
v 0.049538 0.883535 -1.434054
v -0.465308 0.883535 -1.371541
v -0.892130 0.883535 -1.076929
v -1.133141 0.883535 -0.617710
v -1.133141 0.883535 -0.099086
v -0.892130 0.883535 0.360135
v -0.465308 0.883535 0.654749
v 0.049534 0.883535 0.717260
v 0.534457 0.883535 0.533353
v 0.878372 0.883535 0.145158
v 1.002485 0.883535 -0.358400
v -0.081072 0.883535 -0.358400
vt 0.193178 0.145806
vt 0.193178 0.125323
vt 0.311204 0.262360
vt 0.316109 0.282249
vt 0.193176 0.104840
vt 0.316105 0.242470
vt 0.193176 0.084357
vt 0.329689 0.227139
vt 0.193176 0.063873
vt 0.348839 0.219874
vt 0.193176 0.043390
vt 0.369171 0.222343
vt 0.193176 0.022907
vt 0.386032 0.233978
vt 0.193176 0.002424
vt 0.395550 0.252113
vt 0.193176 0.248222
vt 0.395552 0.272598
vt 0.193176 0.227739
vt 0.386032 0.290733
vt 0.193176 0.207255
vt 0.369179 0.302372
vt 0.193176 0.186772
vt 0.348846 0.304841
vt 0.193176 0.166289
vt 0.329689 0.297577
vt 0.353999 0.262357
vt 0.194670 0.145806
vt 0.194672 0.166289
vt 0.194672 0.186772
vt 0.194672 0.207255
vt 0.194672 0.227738
vt 0.194672 0.248221
vt 0.194672 0.268704
vt 0.194672 0.002424
vt 0.194672 0.022907
vt 0.193176 0.268704
vt 0.194672 0.043390
vt 0.194672 0.063874
vt 0.194672 0.084357
vt 0.194672 0.104840
vt 0.194670 0.125323
vn 0.885455 0.000000 -0.464725
vn 0.568065 0.000000 -0.822984
vn 0.046659 0.996621 -0.067597
vn 0.072727 0.996621 -0.038170
vn 0.120536 0.000000 -0.992709
vn 0.009900 0.996621 -0.081538
vn -0.354603 0.000000 -0.935017
vn -0.029126 0.996621 -0.076798
vn -0.748513 0.000000 -0.663120
vn -0.061480 0.996621 -0.054466
vn -0.970943 0.000000 -0.239311
vn -0.079749 0.996621 -0.019656
vn -0.970943 0.000000 0.239310
vn -0.079749 0.996621 0.019656
vn -0.748514 0.000000 0.663119
vn -0.061480 0.996621 0.054466
vn -0.354604 0.000000 0.935016
vn -0.029126 0.996621 0.076799
vn 0.120538 0.000000 0.992709
vn 0.009900 0.996621 0.081537
vn 0.568063 0.000000 0.822985
vn 0.046658 0.996621 0.067596
vn 0.885456 0.000000 0.464723
vn 0.072728 0.996621 0.038170
vn 1.000000 0.000000 0.000000
vn 0.082136 0.996621 0.000000
vn 0.000000 1.000000 0.000000
s 1
g mesa ASSETS Consultorio1 group16 pCylinder22
usemtl lambert3SG
f 53/71/53 54/72/54 67/112/55 66/98/56
f 54/72/54 55/75/57 68/111/58 67/112/55
f 55/75/57 56/77/59 69/110/60 68/111/58
f 56/77/59 57/79/61 70/109/62 69/110/60
f 57/79/61 58/81/63 71/108/64 70/109/62
f 58/81/63 59/83/65 72/106/66 71/108/64
f 59/83/65 60/85/67 73/105/68 72/106/66
f 60/107/67 61/87/69 74/103/70 73/104/68
f 61/87/69 62/89/71 75/102/72 74/103/70
f 62/89/71 63/91/73 76/101/74 75/102/72
f 63/91/73 64/93/75 77/100/76 76/101/74
f 64/93/75 65/95/77 78/99/78 77/100/76
f 65/95/77 53/71/53 66/98/56 78/99/78
f 66/74/56 67/73/55 79/97/79
f 67/73/55 68/76/58 79/97/79
f 68/76/58 69/78/60 79/97/79
f 69/78/60 70/80/62 79/97/79
f 70/80/62 71/82/64 79/97/79
f 71/82/64 72/84/66 79/97/79
f 72/84/66 73/86/68 79/97/79
f 73/86/68 74/88/70 79/97/79
f 74/88/70 75/90/72 79/97/79
f 75/90/72 76/92/74 79/97/79
f 76/92/74 77/94/76 79/97/79
f 77/94/76 78/96/78 79/97/79
f 78/96/78 66/74/56 79/97/79
g default
v 0.822166 0.260403 -0.874787
v 0.845691 0.260403 -0.891998
v 0.814283 0.850633 -0.885568
v 0.837800 0.850633 -0.902777
v 0.797078 0.849974 -0.909077
v 0.820595 0.849974 -0.926284
v 0.804965 0.259744 -0.898299
v 0.828482 0.259744 -0.915508
vt 0.119730 0.007469
vt 0.120880 0.007470
vt 0.116278 0.030787
vt 0.119730 0.030787
vt 0.118578 0.030786
vt 0.117428 0.030787
vt 0.117428 0.007469
vt 0.118578 0.007470
vt 0.116276 0.007470
vt 0.120880 0.030787
vn -0.153148 0.016004 0.988074
vn 0.988103 0.016000 0.152960
vn 0.988103 0.016000 0.152957
vn -0.153146 0.016004 0.988074
vn -0.988105 -0.015991 -0.152945
vn 0.153123 -0.015996 -0.988078
vn 0.153126 -0.015996 -0.988077
vn -0.988106 -0.015991 -0.152942
s 1
g mesa ASSETS Consultorio1 group16 pCube50 group13
usemtl lambert3SG
f 80/113/80 81/114/81 83/122/82 82/116/83
f 84/117/84 85/118/85 87/119/86 86/120/87
f 81/121/81 87/119/86 85/118/85 83/115/82
f 86/120/87 80/113/80 82/116/83 84/117/84
g default
v -0.880707 0.260410 0.371727
v -0.857183 0.260410 0.354516
v -0.888591 0.850640 0.360947
v -0.865073 0.850640 0.343738
v -0.905796 0.849981 0.337437
v -0.882279 0.849981 0.320230
v -0.897909 0.259751 0.348215
v -0.874392 0.259751 0.331006
vt 0.119730 0.007469
vt 0.120880 0.007470
vt 0.116278 0.030787
vt 0.119730 0.030787
vt 0.118578 0.030786
vt 0.117428 0.030787
vt 0.117428 0.007469
vt 0.118578 0.007470
vt 0.116276 0.007470
vt 0.120880 0.030787
vn -0.153102 0.016003 0.988081
vn 0.988104 0.015998 0.152952
vn 0.988104 0.015997 0.152950
vn -0.153100 0.016003 0.988081
vn -0.988103 -0.015992 -0.152959
vn 0.153099 -0.015997 -0.988081
vn 0.153102 -0.015997 -0.988081
vn -0.988104 -0.015992 -0.152956
s 1
g mesa ASSETS Consultorio1 group16 group13 pCube37
usemtl lambert3SG
f 88/123/88 89/124/89 91/132/90 90/126/91
f 92/127/92 93/128/93 95/129/94 94/130/95
f 89/131/89 95/129/94 93/128/93 91/125/90
f 94/130/95 88/123/88 90/126/91 92/127/92
g default
v -0.631005 0.260403 -1.220840
v -0.648301 0.260403 -1.244302
v -0.641759 0.850633 -1.212917
v -0.659051 0.850633 -1.236372
v -0.665204 0.849974 -1.195627
v -0.682496 0.849974 -1.219082
v -0.654454 0.259744 -1.203553
v -0.671750 0.259744 -1.227006
vt 0.119730 0.007469
vt 0.120880 0.007470
vt 0.116278 0.030787
vt 0.119730 0.030787
vt 0.118578 0.030786
vt 0.117428 0.030787
vt 0.117428 0.007469
vt 0.118578 0.007470
vt 0.116276 0.007470
vt 0.120880 0.030787
vn 0.988622 0.016007 0.149564
vn 0.149312 0.016002 -0.988661
vn 0.149309 0.016002 -0.988661
vn 0.988622 0.016007 0.149564
vn -0.149344 -0.015990 0.988656
vn -0.988625 -0.015995 -0.149546
vn -0.988625 -0.015995 -0.149547
vn -0.149341 -0.015990 0.988657
s 1
g mesa ASSETS Consultorio1 group16 pCube50 group14
usemtl lambert3SG
f 96/133/96 97/134/97 99/142/98 98/136/99
f 100/137/100 101/138/101 103/139/102 102/140/103
f 97/141/97 103/139/102 101/138/101 99/135/98
f 102/140/103 96/133/96 98/136/99 100/137/100
g default
v 0.621583 0.260410 0.443651
v 0.604287 0.260410 0.420191
v 0.610833 0.850640 0.451574
v 0.593537 0.850640 0.428119
v 0.587388 0.849981 0.468865
v 0.570092 0.849981 0.445412
v 0.598134 0.259751 0.460940
v 0.580842 0.259751 0.437485
vt 0.119730 0.007469
vt 0.120880 0.007470
vt 0.116278 0.030787
vt 0.119730 0.030787
vt 0.118578 0.030786
vt 0.117428 0.030787
vt 0.117428 0.007469
vt 0.118578 0.007470
vt 0.116276 0.007470
vt 0.120880 0.030787
vn 0.988630 0.015998 0.149513
vn 0.149313 0.015999 -0.988661
vn 0.149309 0.015999 -0.988661
vn 0.988631 0.015999 0.149511
vn -0.149344 -0.015994 0.988656
vn -0.988633 -0.015993 -0.149493
vn -0.988633 -0.015993 -0.149497
vn -0.149345 -0.015994 0.988656
s 1
g mesa ASSETS Consultorio1 group16 group14 pCube37
usemtl lambert3SG
f 104/143/104 105/144/105 107/152/106 106/146/107
f 108/147/108 109/148/109 111/149/110 110/150/111
f 105/151/105 111/149/110 109/148/109 107/145/106
f 110/150/111 104/143/104 106/146/107 108/147/108
g default
v 3.666317 1.985995 8.165174
v 3.605695 1.985995 8.165167
v 3.666317 2.561119 8.165174
v 3.605695 2.561119 8.165167
v 3.605695 1.985995 7.843833
v 3.605695 2.561119 7.843833
v 3.666317 1.985995 7.843840
v 3.666317 2.561119 7.843840
v 3.636004 2.561119 7.824826
v 3.636004 1.985995 7.824826
v 3.651161 2.561119 7.827001
v 3.651161 1.985995 7.827001
v 3.620851 2.561119 7.826997
v 3.620851 1.985995 7.826997
vt 0.285461 0.244741
vt 0.584820 0.245782
vt 0.264708 0.258913
vt 0.264706 0.244741
vt 0.585487 0.246524
vt 0.264707 0.259912
vt 0.285460 0.262262
vt 0.587490 0.231609
vt 0.264709 0.276436
vt 0.264708 0.262262
vt 0.285460 0.260588
vt 0.586824 0.246524
vt 0.264707 0.261263
vt 0.264708 0.260588
vt 0.285460 0.259912
vt 0.586157 0.246620
vt 0.285460 0.261263
vt 0.587494 0.245781
vt 0.285461 0.276436
vt 0.285460 0.258913
vt 0.584818 0.231609
vn -0.997696 0.067842 0.000000
vn -0.998814 0.019173 -0.044766
vn -0.998997 0.000000 -0.044774
vn -1.000000 0.000000 0.000000
vn -0.424719 0.600751 -0.677283
vn -0.531273 0.000000 -0.847201
vn 0.998813 0.019178 -0.044765
vn 0.997801 0.066277 0.000000
vn 1.000000 0.000000 0.000000
vn 0.998997 0.000000 -0.044774
vn 0.000081 0.641983 -0.766719
vn 0.522022 0.186941 -0.832194
vn 0.531390 0.000000 -0.847127
vn 0.000105 0.000000 -1.000000
s 1
g ASSETS Consultorio1 group16 Cube_19_5 group17 librero
usemtl lambert3SG
f 115/153/112 117/172/113 116/155/114 113/156/115
f 117/172/113 124/167/116 125/158/117 116/155/114
f 119/159/118 114/171/119 112/161/120 118/162/121
f 115/173/112 124/157/116 117/154/113
f 120/163/122 122/169/123 123/165/124 121/166/125
f 114/160/119 122/164/123 120/168/122
f 122/169/123 119/159/118 118/162/121 123/165/124
f 119/170/118 122/164/123 114/160/119
f 124/167/116 120/163/122 121/166/125 125/158/117
f 114/160/119 120/168/122 124/157/116 115/173/112
g default
v 3.368809 1.985995 8.165174
v 3.308183 1.985995 8.165167
v 3.368809 2.561119 8.165174
v 3.308183 2.561119 8.165167
v 3.308183 1.985995 7.843833
v 3.308183 2.561119 7.843833
v 3.368809 1.985995 7.843840
v 3.368809 2.561119 7.843840
v 3.338496 2.561119 7.824826
v 3.338496 1.985995 7.824826
v 3.353653 2.561119 7.827001
v 3.353653 1.985995 7.827001
v 3.323343 2.561119 7.826997
v 3.323343 1.985995 7.826997
vt 0.580532 0.235800
vt 0.271862 0.031172
vt 0.559781 0.249971
vt 0.559780 0.235800
vt 0.272532 0.031914
vt 0.559781 0.250971
vt 0.580534 0.253321
vt 0.274534 0.016999
vt 0.559780 0.267494
vt 0.559781 0.253321
vt 0.580534 0.251646
vt 0.273869 0.031914
vt 0.559781 0.252321
vt 0.559781 0.251646
vt 0.580534 0.250971
vt 0.273199 0.032010
vt 0.580534 0.252321
vt 0.274536 0.031171
vt 0.580536 0.267494
vt 0.580534 0.249971
vt 0.271860 0.016999
vn -0.997696 0.067838 0.000000
vn -0.998813 0.019181 -0.044776
vn -0.998997 0.000000 -0.044784
vn -1.000000 0.000000 0.000000
vn -0.424698 0.600717 -0.677326
vn -0.531230 0.000000 -0.847228
vn 0.998813 0.019184 -0.044765
vn 0.997801 0.066274 0.000000
vn 1.000000 0.000000 0.000000
vn 0.998997 0.000000 -0.044774
vn 0.000081 0.641948 -0.766748
vn 0.522024 0.186918 -0.832197
vn 0.531390 0.000000 -0.847127
vn 0.000105 0.000000 -1.000000
s 1
g ASSETS Consultorio1 group16 group17 librero Cube_19_2
usemtl lambert3SG
f 129/174/126 131/193/127 130/176/128 127/177/129
f 131/193/127 138/188/130 139/179/131 130/176/128
f 133/180/132 128/192/133 126/182/134 132/183/135
f 129/194/126 138/178/130 131/175/127
f 134/184/136 136/190/137 137/186/138 135/187/139
f 128/181/133 136/185/137 134/189/136
f 136/190/137 133/180/132 132/183/135 137/186/138
f 133/191/132 136/185/137 128/181/133
f 138/188/130 134/184/136 135/187/139 139/179/131
f 128/181/133 134/189/136 138/178/130 129/194/126
g default
v 3.270398 1.985995 8.165174
v 3.209773 1.985995 8.165167
v 3.270398 2.561119 8.165174
v 3.209773 2.561119 8.165167
v 3.209773 1.985995 7.843833
v 3.209773 2.561119 7.843833
v 3.270398 1.985995 7.843840
v 3.270398 2.561119 7.843840
v 3.240082 2.561119 7.824826
v 3.240082 1.985995 7.824826
v 3.255239 2.561119 7.827001
v 3.255239 1.985995 7.827001
v 3.224929 2.561119 7.826997
v 3.224929 1.985995 7.826997
vt 0.906006 0.230415
vt 0.028650 0.040105
vt 0.885253 0.244587
vt 0.885254 0.230415
vt 0.029320 0.040848
vt 0.885254 0.245586
vt 0.906007 0.247936
vt 0.031322 0.025932
vt 0.885254 0.262110
vt 0.885253 0.247936
vt 0.906006 0.246262
vt 0.030657 0.040847
vt 0.885254 0.246937
vt 0.885254 0.246262
vt 0.906006 0.245586
vt 0.029987 0.040943
vt 0.906006 0.246937
vt 0.031324 0.040104
vt 0.906006 0.262110
vt 0.906006 0.244587
vt 0.028648 0.025932
vn -0.997696 0.067838 0.000000
vn -0.998814 0.019175 -0.044766
vn -0.998997 0.000000 -0.044774
vn -1.000000 0.000000 0.000000
vn -0.424726 0.600733 -0.677295
vn -0.531273 0.000000 -0.847201
vn 0.998813 0.019177 -0.044775
vn 0.997801 0.066273 0.000000
vn 1.000000 0.000000 0.000000
vn 0.998997 0.000000 -0.044784
vn 0.000081 0.641991 -0.766712
vn 0.521975 0.186994 -0.832211
vn 0.531347 0.000000 -0.847154
vn 0.000105 0.000000 -1.000000
s 1
g ASSETS Consultorio1 group16 group17 librero Cube_19_1
usemtl lambert3SG
f 143/195/140 145/214/141 144/197/142 141/198/143
f 145/214/141 152/209/144 153/200/145 144/197/142
f 147/201/146 142/213/147 140/203/148 146/204/149
f 143/215/140 152/199/144 145/196/141
f 148/205/150 150/211/151 151/207/152 149/208/153
f 142/202/147 150/206/151 148/210/150
f 150/211/151 147/201/146 146/204/149 151/207/152
f 147/212/146 150/206/151 142/202/147
f 152/209/144 148/205/150 149/208/153 153/200/145
f 142/202/147 148/210/150 152/199/144 143/215/140
g default
v 3.458693 1.985995 8.165174
v 3.398067 1.985995 8.165167
v 3.458693 2.561119 8.165174
v 3.398067 2.561119 8.165167
v 3.398067 1.985995 7.843833
v 3.398067 2.561119 7.843833
v 3.458693 1.985995 7.843840
v 3.458693 2.561119 7.843840
v 3.428380 2.561119 7.824826
v 3.428380 1.985995 7.824826
v 3.443536 2.561119 7.827001
v 3.443536 1.985995 7.827001
v 3.413227 2.561119 7.826997
v 3.413227 1.985995 7.826997
vt 0.580532 0.200033
vt 0.087666 0.020430
vt 0.559781 0.214205
vt 0.559780 0.200033
vt 0.088335 0.021173
vt 0.559781 0.215204
vt 0.580534 0.217554
vt 0.090338 0.006257
vt 0.559780 0.231728
vt 0.559781 0.217554
vt 0.580534 0.215879
vt 0.089670 0.021172
vt 0.559781 0.216555
vt 0.559781 0.215879
vt 0.580534 0.215204
vt 0.089003 0.021268
vt 0.580534 0.216555
vt 0.090340 0.020430
vt 0.580532 0.231728
vt 0.580534 0.214205
vt 0.087664 0.006258
vn -0.997696 0.067838 0.000000
vn -0.998813 0.019179 -0.044776
vn -0.998997 0.000000 -0.044784
vn -1.000000 0.000000 0.000000
vn -0.424699 0.600715 -0.677328
vn -0.531230 0.000000 -0.847228
vn 0.998813 0.019184 -0.044765
vn 0.997801 0.066274 0.000000
vn 1.000000 0.000000 0.000000
vn 0.998997 0.000000 -0.044774
vn 0.000081 0.641960 -0.766738
vn 0.522022 0.186946 -0.832193
vn 0.531390 0.000000 -0.847127
vn 0.000105 0.000000 -1.000000
s 1
g ASSETS Consultorio1 group16 group17 librero Cube_19_3
usemtl lambert3SG
f 157/216/154 159/235/155 158/218/156 155/219/157
f 159/235/155 166/230/158 167/221/159 158/218/156
f 161/222/160 156/234/161 154/224/162 160/225/163
f 157/236/154 166/220/158 159/217/155
f 162/226/164 164/232/165 165/228/166 163/229/167
f 156/223/161 164/227/165 162/231/164
f 164/232/165 161/222/160 160/225/163 165/228/166
f 161/233/160 164/227/165 156/223/161
f 166/230/158 162/226/164 163/229/167 167/221/159
f 156/223/161 162/231/164 166/220/158 157/236/154
g default
v 3.560229 1.985995 8.165174
v 3.499606 1.985995 8.165167
v 3.560229 2.561119 8.165174
v 3.499606 2.561119 8.165167
v 3.499606 1.985995 7.843833
v 3.499606 2.561119 7.843833
v 3.560229 1.985995 7.843840
v 3.560229 2.561119 7.843840
v 3.529919 2.561119 7.824826
v 3.529919 1.985995 7.824826
v 3.545076 2.561119 7.827001
v 3.545076 1.985995 7.827001
v 3.514763 2.561119 7.826997
v 3.514763 1.985995 7.826997
vt 0.796921 0.241163
vt 0.028650 0.018666
vt 0.776168 0.255337
vt 0.776169 0.241165
vt 0.029320 0.019408
vt 0.776168 0.256336
vt 0.796921 0.258686
vt 0.031322 0.004493
vt 0.776169 0.272860
vt 0.776168 0.258686
vt 0.796921 0.257011
vt 0.030657 0.019408
vt 0.776168 0.257687
vt 0.776168 0.257011
vt 0.796921 0.256336
vt 0.029987 0.019504
vt 0.796921 0.257687
vt 0.031324 0.018665
vt 0.796921 0.272858
vt 0.796921 0.255337
vt 0.028648 0.004493
vn -0.997696 0.067842 0.000000
vn -0.998813 0.019180 -0.044766
vn -0.998997 0.000000 -0.044774
vn -1.000000 0.000000 0.000000
vn -0.424696 0.600723 -0.677322
vn -0.531230 0.000000 -0.847228
vn 0.998814 0.019179 -0.044755
vn 0.997801 0.066278 -0.000000
vn 1.000000 0.000000 0.000000
vn 0.998998 0.000000 -0.044764
vn 0.000081 0.641934 -0.766760
vn 0.522066 0.186919 -0.832171
vn 0.531432 0.000000 -0.847101
vn 0.000105 0.000000 -1.000000
s 1
g ASSETS Consultorio1 group16 group17 librero Cube_19_4
usemtl lambert3SG
f 171/237/168 173/256/169 172/239/170 169/240/171
f 173/256/169 180/251/172 181/242/173 172/239/170
f 175/243/174 170/255/175 168/245/176 174/246/177
f 171/257/168 180/241/172 173/238/169
f 176/247/178 178/253/179 179/249/180 177/250/181
f 170/244/175 178/248/179 176/252/178
f 178/253/179 175/243/174 174/246/177 179/249/180
f 175/254/174 178/248/179 170/244/175
f 180/251/172 176/247/178 177/250/181 181/242/173
f 170/244/175 176/252/178 180/241/172 171/257/168
